<?xml version="1.0" encoding="utf-8"?>
<!-- Svg Vector Icons : http://www.onlinewebfonts.com/icon -->
<!DOCTYPE svg PUBLIC "-//W3C//DTD SVG 1.1//EN" "http://www.w3.org/Graphics/SVG/1.1/DTD/svg11.dtd">
<svg version="1.1" xmlns="http://www.w3.org/2000/svg" xmlns:xlink="http://www.w3.org/1999/xlink" x="0px" y="0px" viewBox="0 0 1000 1000" enable-background="new 0 0 1000 1000" xml:space="preserve">
<metadata> Svg Vector Icons : http://www.onlinewebfonts.com/icon </metadata>
<g><g><g><path d="M507.9,471.6c-20.8,12.9-41.6,20.2-63.5,24.8c-32.1,6.8-64.4,6.8-96.5,0.6c-27.7-5.3-50.5-20.3-68.8-41.1c-36.4-41.3-62.6-88.1-70.4-143.5c-10.6-75.9,16-137.4,74.2-185.7c41.8-34.6,91.4-51.4,144.1-60.8c82.7-14.7,160.9,1.4,236.6,34.2c38.9,16.8,76.4,36.7,116.5,50.6c8.9,3.1,17.8,5.8,27.1,7.2c16.8,2.4,30.6-3.3,41.7-15.8c14.5-16.4,19.6-36,19.5-57.4c4.1-0.2,4.9,2.9,6.2,5.3c12.3,22.7,8.8,59.6-7.9,78.8c-17.5,20.1-40.8,23.7-65.6,20.8c-28.2-3.3-54.9-11.5-80.6-23.7c-48.2-23-97.2-44.2-149.6-56.1c-65.6-14.9-130.7-12.2-194.4,8.9c-92.7,30.8-141.5,122.9-116.2,217.5c14.6,54.6,45.3,97.6,93.2,127.9c20.7,13.2,43.6,17.3,67.7,17c24.4-0.4,48.2-5.1,72-9.6C497.5,470.7,501.5,469.7,507.9,471.6z"/><path d="M605.5,936.8c-4.4-1.5-12.8,3.5-14.1-2.7c-1.3-6.1,7.4-8.1,12.4-10.2c30.8-12.8,61.8-25,92.5-37.8c19.2-8,37.8-16.9,55-28.7c5.9-4,11.3-8.6,16.1-14c7.6-8.5,9.4-17.4,5-28.6c-23.4-58.6-49.5-116.1-70-175.9c-16.5-48.2-29.6-97-33.1-148.3c-4.1-60.5,16.8-107.5,69-139.8c24.6-15.3,51-26.7,77.4-38.1c32.7-14.1,65-28.6,93.7-50.5c42.9-32.7,57-76.6,53.3-128.4c-1.7-23.3-5.5-46.2-10.9-68.9c-0.6-2.6-4.1-6.4,0.5-8.4c4.2-1.8,6.4,1.4,8.2,4.7c14,25.4,24.9,51.7,28.3,80.9c6.6,56.1-18,98.9-56.8,136c-24.8,23.6-55.2,38.3-85.2,53.5c-27.1,13.8-55.1,26-80.6,42.7c-27.8,18.2-50.9,40.4-58.6,74.3c-6.2,27.6-1.2,54.9,4.4,81.9c12.2,59.4,36.3,114.7,60,170c12.3,28.5,25.4,56.8,35.1,86.3c15.7,47.6,2.6,84.3-39.8,111c-30.5,19.2-64.6,27.6-99.6,33.2C647.4,934.4,626.7,935.5,605.5,936.8z"/><path d="M195.5,366c-0.8,5-3.6,8.7-6.2,12.5C144,443.2,105.2,511.3,75.9,584.8c-20.4,51.2-25.3,103.5-11.8,157c16.7,66.2,60.7,107,122.8,131c45,17.4,92,25.8,139.6,31.4c66.2,7.8,132.6,13.1,199,19.5c6.4,0.6,12.7,2.4,18.9,4.1c3,0.8,6.9,2,6.5,6.1c-0.5,4.7-4.9,3.3-7.8,3.5c-42.9,3.5-85.9,5.4-129,6.1c-60.6,0.9-121.4,1.3-181.2-8.7c-97.1-16.4-172.4-64.7-208.9-160.1C4.4,723.4,6.8,670,22.6,618c23.7-78,59.5-149.6,117.7-208.2c15.1-15.2,32.1-28.2,48.7-41.6C190.7,367,192.2,364.9,195.5,366z"/><path d="M361.2,721c68.7-11.3,137.2-17.4,206.3-9.2c32.9,4,39.1,10.7,39.9,43.9c1.2,52.5-6.1,104-21,154.4c-2.5,8.4-5.6,16.6-10.8,23.8c-2.1,2.8-4.3,6.4-8.6,4.9c-3.7-1.3-3.2-5.2-3.4-8.4c-1-22.4,2.7-44.6,4.7-66.8c3-31.9,8.3-63.6,5.4-95.8c-0.9-10.2-5.6-16.4-14.7-20.8c-26.8-12.8-55.5-17-84.5-19.9c-35.5-3.5-71.2-3.1-106.7-5.2C365.6,721.8,363.5,721.3,361.2,721z"/></g></g><g></g><g></g><g></g><g></g><g></g><g></g><g></g><g></g><g></g><g></g><g></g><g></g><g></g><g></g><g></g></g>
</svg>